# xmcd
# 
# Track frame offsets:
#     150
#     14406
#     26509
#     41942
#     60767
#     81264
#     95390
#     109791
#     126366
#     143318
#     157702
# 
# Disc length: 2366
# 
# Revision: 8
# Processed by: cddbd v1.5.2PL0 Copyright (c) Steve Scherf et al.
# Submitted via: fre:ac v1.1beta1pre5
# 
DISCID=7d093c0b
DTITLE=Steve Earle - The Revolution Starts....Now
DYEAR=2004
DGENRE=12.3-Country-influenced Rock
TTITLE0=The Revolution Starts....
TTITLE1=Home To Houston
TTITLE2=Rich Man's War
TTITLE3=Warrior
TTITLE4=The Gringo's Tale
TTITLE5=Condi, Condi
TTITLE6=F The CC (Fuck The FCC)
TTITLE7=Comin' Around [with Emmylou Harris]
TTITLE8=I Thought You Should Know
TTITLE9=The Seeker
TTITLE10=The Revolution Starts Now
EXTD=
EXTT0=
EXTT1=
EXTT2=
EXTT3=
EXTT4=
EXTT5=
EXTT6=
EXTT7=
EXTT8=
EXTT9=
EXTT10=
PLAYORDER=
